HIERARCHY
ROOT Hips
{
    OFFSET   0.000000   0.000000   0.000000
    CHANNELS 6 Xposition Yposition Zposition Zrotation Xrotation Yrotation
    JOINT Chest
    {
        OFFSET   0.000000   8.007230   0.000000
        CHANNELS 3 Zrotation Xrotation Yrotation
        JOINT Chest2
        {
            OFFSET   0.000000  22.077100   0.000000
            CHANNELS 3 Zrotation Xrotation Yrotation
            JOINT Neck
            {
                OFFSET   0.000000  23.254700   0.000000
                CHANNELS 3 Zrotation Xrotation Yrotation
                JOINT Head
                {
                    OFFSET   0.000010  14.370000   1.956610
                    CHANNELS 3 Zrotation Xrotation Yrotation
                    End Site
                    {
                        OFFSET   0.000000  19.566000   0.000000
                    }
                }
            }
            JOINT LeftCollar
            {
                OFFSET   3.911900  19.017000  -0.467063
                CHANNELS 3 Zrotation Xrotation Yrotation
                JOINT LeftShoulder
                {
                    OFFSET  10.383700   0.000000   0.000000
                    CHANNELS 3 Zrotation Xrotation Yrotation
                    JOINT LeftElbow
                    {
                        OFFSET  26.662100   0.001671   0.000522
                        CHANNELS 3 Zrotation Xrotation Yrotation
                        JOINT LeftWrist
                        {
                            OFFSET  28.869000   0.000037  -0.000114
                            CHANNELS 3 Zrotation Xrotation Yrotation
                            JOINT LeftFinger0
                            {
                                OFFSET   2.044650  -2.323450   3.252850
                                CHANNELS 3 Zrotation Xrotation Yrotation
                                JOINT LeftFinger01
                                {
                                    OFFSET   3.088140   0.000000   0.000000
                                    CHANNELS 3 Zrotation Xrotation Yrotation
                                    JOINT LeftFinger02
                                    {
                                        OFFSET   2.639460   0.000000   0.000000
                                        CHANNELS 3 Zrotation Xrotation Yrotation
                                        End Site
                                        {
                                            OFFSET   2.582190   0.000000   0.000000
                                        }
                                    }
                                }
                            }
                            JOINT LeftFinger1
                            {
                                OFFSET   8.364480   0.000000   3.252850
                                CHANNELS 3 Zrotation Xrotation Yrotation
                                JOINT LeftFinger11
                                {
                                    OFFSET   4.646930   0.000000   0.000000
                                    CHANNELS 3 Zrotation Xrotation Yrotation
                                    JOINT LeftFinger12
                                    {
                                        OFFSET   2.323470   0.000000   0.000000
                                        CHANNELS 3 Zrotation Xrotation Yrotation
                                        End Site
                                        {
                                            OFFSET   2.273050   0.000000   0.000000
                                        }
                                    }
                                }
                            }
                            JOINT LeftFinger2
                            {
                                OFFSET   8.364490   0.000016   1.078090
                                CHANNELS 3 Zrotation Xrotation Yrotation
                                JOINT LeftFinger21
                                {
                                    OFFSET   5.111620   0.000000   0.000000
                                    CHANNELS 3 Zrotation Xrotation Yrotation
                                    JOINT LeftFinger22
                                    {
                                        OFFSET   2.788150   0.000013   0.000000
                                        CHANNELS 3 Zrotation Xrotation Yrotation
                                        End Site
                                        {
                                            OFFSET   2.727660   0.000000   0.000000
                                        }
                                    }
                                }
                            }
                            JOINT LeftFinger3
                            {
                                OFFSET   7.899780   0.000016  -1.078090
                                CHANNELS 3 Zrotation Xrotation Yrotation
                                JOINT LeftFinger31
                                {
                                    OFFSET   4.646930   0.000000   0.000000
                                    CHANNELS 3 Zrotation Xrotation Yrotation
                                    JOINT LeftFinger32
                                    {
                                        OFFSET   2.323470   0.000000   0.000000
                                        CHANNELS 3 Zrotation Xrotation Yrotation
                                        End Site
                                        {
                                            OFFSET   2.273050   0.000000   0.000000
                                        }
                                    }
                                }
                            }
                            JOINT LeftFinger4
                            {
                                OFFSET   7.435080   0.000000  -3.252850
                                CHANNELS 3 Zrotation Xrotation Yrotation
                                JOINT LeftFinger41
                                {
                                    OFFSET   3.717550   0.000000   0.000000
                                    CHANNELS 3 Zrotation Xrotation Yrotation
                                    JOINT LeftFinger42
                                    {
                                        OFFSET   1.858760   0.000000   0.000000
                                        CHANNELS 3 Zrotation Xrotation Yrotation
                                        End Site
                                        {
                                            OFFSET   1.818440   0.000000   0.000000
                                        }
                                    }
                                }
                            }
                        }
                    }
                }
            }
            JOINT RightCollar
            {
                OFFSET  -3.911900  19.017000  -0.467064
                CHANNELS 3 Zrotation Xrotation Yrotation
                JOINT RightShoulder
                {
                    OFFSET -10.383700   0.000000   0.000000
                    CHANNELS 3 Zrotation Xrotation Yrotation
                    JOINT RightElbow
                    {
                        OFFSET -26.662100   0.001633   0.000260
                        CHANNELS 3 Zrotation Xrotation Yrotation
                        JOINT RightWrist
                        {
                            OFFSET -28.869000  -0.000045  -0.000080
                            CHANNELS 3 Zrotation Xrotation Yrotation
                            JOINT RightFinger0
                            {
                                OFFSET  -2.044660  -2.323490   3.252850
                                CHANNELS 3 Zrotation Xrotation Yrotation
                                JOINT RightFinger01
                                {
                                    OFFSET  -3.088140   0.000000   0.000000
                                    CHANNELS 3 Zrotation Xrotation Yrotation
                                    JOINT RightFinger02
                                    {
                                        OFFSET  -2.639450   0.000000   0.000000
                                        CHANNELS 3 Zrotation Xrotation Yrotation
                                        End Site
                                        {
                                            OFFSET  -2.582190   0.000000   0.000000
                                        }
                                    }
                                }
                            }
                            JOINT RightFinger1
                            {
                                OFFSET  -8.364480   0.000000   3.252850
                                CHANNELS 3 Zrotation Xrotation Yrotation
                                JOINT RightFinger11
                                {
                                    OFFSET  -4.646920   0.000000   0.000000
                                    CHANNELS 3 Zrotation Xrotation Yrotation
                                    JOINT RightFinger12
                                    {
                                        OFFSET  -2.323470   0.000000   0.000000
                                        CHANNELS 3 Zrotation Xrotation Yrotation
                                        End Site
                                        {
                                            OFFSET  -2.273050   0.000000   0.000000
                                        }
                                    }
                                }
                            }
                            JOINT RightFinger2
                            {
                                OFFSET  -8.364480   0.000000   1.078090
                                CHANNELS 3 Zrotation Xrotation Yrotation
                                JOINT RightFinger21
                                {
                                    OFFSET  -5.111610   0.000000   0.000000
                                    CHANNELS 3 Zrotation Xrotation Yrotation
                                    JOINT RightFinger22
                                    {
                                        OFFSET  -2.788160   0.000000   0.000000
                                        CHANNELS 3 Zrotation Xrotation Yrotation
                                        End Site
                                        {
                                            OFFSET  -2.727660   0.000000   0.000000
                                        }
                                    }
                                }
                            }
                            JOINT RightFinger3
                            {
                                OFFSET  -7.899780   0.000000  -1.078090
                                CHANNELS 3 Zrotation Xrotation Yrotation
                                JOINT RightFinger31
                                {
                                    OFFSET  -4.646930   0.000000   0.000000
                                    CHANNELS 3 Zrotation Xrotation Yrotation
                                    JOINT RightFinger32
                                    {
                                        OFFSET  -2.323470   0.000000   0.000000
                                        CHANNELS 3 Zrotation Xrotation Yrotation
                                        End Site
                                        {
                                            OFFSET  -2.273050   0.000000   0.000000
                                        }
                                    }
                                }
                            }
                            JOINT RightFinger4
                            {
                                OFFSET  -7.435090   0.000000  -3.252850
                                CHANNELS 3 Zrotation Xrotation Yrotation
                                JOINT RightFinger41
                                {
                                    OFFSET  -3.717550   0.000000   0.000000
                                    CHANNELS 3 Zrotation Xrotation Yrotation
                                    JOINT RightFinger42
                                    {
                                        OFFSET  -1.858760   0.000000   0.000000
                                        CHANNELS 3 Zrotation Xrotation Yrotation
                                        End Site
                                        {
                                            OFFSET  -1.818440   0.000000   0.000000
                                        }
                                    }
                                }
                            }
                        }
                    }
                }
            }
        }
    }
    JOINT LeftHip
    {
        OFFSET   9.782990   0.000000   0.000000
        CHANNELS 3 Zrotation Xrotation Yrotation
        JOINT LeftKnee
        {
            OFFSET  -0.000063 -41.789100   0.001657
            CHANNELS 3 Zrotation Xrotation Yrotation
            JOINT LeftAnkle
            {
                OFFSET   0.000078 -41.133200  -0.000113
                CHANNELS 3 Zrotation Xrotation Yrotation
                JOINT LeftToe
                {
                    OFFSET   0.000000  -6.358970  14.674500
                    CHANNELS 3 Zrotation Xrotation Yrotation
                    End Site
                    {
                        OFFSET   0.000000   0.000000   3.913200
                    }
                }
            }
        }
    }
    JOINT RightHip
    {
        OFFSET  -9.782990   0.000000   0.000000
        CHANNELS 3 Zrotation Xrotation Yrotation
        JOINT RightKnee
        {
            OFFSET   0.000053 -41.789200   0.000277
            CHANNELS 3 Zrotation Xrotation Yrotation
            JOINT RightAnkle
            {
                OFFSET   0.000030 -41.133200  -0.000150
                CHANNELS 3 Zrotation Xrotation Yrotation
                JOINT RightToe
                {
                    OFFSET   0.000000  -6.358960  14.674500
                    CHANNELS 3 Zrotation Xrotation Yrotation
                    End Site
                    {
                        OFFSET   0.000000   0.000000   3.913200
                    }
                }
            }
        }
    }
}
MOTION
Frames: 4
Frame Time:   0.016667
 -5.910610  89.250000  -0.995061  -3.749120 -19.464100  -9.345240   0.426443  15.001700   3.740350  -0.216123  29.997800   7.784920   5.266250  -5.122790   0.471525   8.840780 -10.124800 -21.109600  -3.777660  -8.198390  -0.765696 -64.555300  23.873000 -11.479100  -2.757940  -3.369870 -20.873300  10.350000  -3.347690   3.930160  41.442200  38.380200 -69.795100 -32.828100   0.000000   0.000000 -11.414000   0.003158  -0.000000 -30.358000   4.993580  -8.453240 -25.140000   0.000370   0.005288 -17.598000  -0.002280   0.001111 -28.178300  -1.888950   3.521170 -33.686500   0.002722  -0.000157 -22.435200  -0.003872   0.001034 -27.732500  -1.861480   3.535760 -30.722900   0.001012  -0.000254 -20.461500   0.001242   0.003785 -28.088800  -1.883620   3.523990 -42.219200   0.000852  -0.000260 -28.118000   0.000576   0.000831   1.880150  -6.922310   6.075230  16.542700 -12.913900  35.785500  -7.230490  -2.080830  -0.000480   1.384490   8.880030  -8.803760 -16.148600  35.632600  56.111400  83.647900  -0.005730   0.001850  49.049500   0.001584   0.001544  -1.137780  -0.655210  29.990200  -0.000000  -0.003793  -0.005284  -0.000001  -0.004776  -0.007735  89.000500  -0.001479  -0.002976  95.013700   0.003212   0.000202  71.260200  -0.000907  -0.001656  88.998000  -4.988770  -0.093528  95.311600   0.006968   0.000538  71.483700  -0.004018  -0.003035  88.983600  -9.998730  -0.183266 110.000000  -0.002090  -0.002924  80.000000  -0.008537  -0.005470   5.213390  15.590800   6.036040   3.616810  13.664900   4.957780  -8.802070  -4.722160   0.064126   0.000000   0.000000   0.000000   4.656400  20.780300  -0.891169   0.871895   1.762030  -9.501820   0.107601  -3.055540   9.020100   0.000000   0.000000   0.000000
 -5.972880  89.259200  -0.928932  -3.656020 -19.453700  -9.255450   0.430027  15.022600   3.722680  -0.205203  30.040000   7.747980   5.233780  -5.213710   0.476880   8.797440 -10.307400 -20.852800  -3.794360  -8.204050  -0.748315 -64.619000  23.769100 -11.439000  -2.892400  -3.420960 -20.570900  10.312400  -3.307800   3.874380  41.514300  38.424700 -69.976900 -32.736100   0.000000   0.000000 -11.368000   0.003135  -0.000000 -30.324800   5.077880  -8.601930 -25.123700   0.000591   0.005384 -17.586600  -0.002342   0.001407 -28.182500  -1.808530   3.370850 -33.681100   0.002647  -0.000157 -22.431600  -0.003835   0.000975 -27.735000  -1.782160   3.384870 -30.714200   0.000986  -0.000254 -20.455700   0.001228   0.003738 -28.065600  -1.802310   3.374220 -42.178500   0.000849  -0.000261 -28.090900   0.000577   0.000782   1.912600  -6.917800   6.111340  16.647300 -13.054900  35.778900  -7.473870  -1.763200  -0.000501   2.000500   8.716480  -8.666070 -16.201000  35.397100  56.114000  83.763000  -0.005818   0.001843  49.126200   0.001577   0.001582  -1.596660  -0.917685  29.962900   0.000034  -0.003661  -0.005486  -0.000001  -0.004984  -0.007731  89.000500  -0.001479  -0.002904  95.005000   0.003168   0.000231  71.253700  -0.000810  -0.001687  88.997900  -4.988560  -0.093651  95.303200   0.007034   0.000634  71.477400  -0.004066  -0.003027  88.983500  -9.998640  -0.183404 110.000000  -0.002062  -0.002769  80.000000  -0.008649  -0.005635   5.208740  15.605700   6.027120   3.608370  13.658800   4.965050  -8.898590  -4.626220   0.002859   0.000000   0.000000  -0.000000   4.570920  20.853400  -0.927524   0.950976   1.690210  -9.553100   0.028436  -3.083610   9.051070   0.000000   0.000000   0.000000
 -6.031850  89.268800  -0.865101  -3.580910 -19.427900  -9.193220   0.436521  15.038200   3.702250  -0.186614  30.071800   7.703240   5.197390  -5.300570   0.481420   8.739020 -10.482600 -20.515100  -3.810780  -8.212040  -0.723818 -64.681500  23.651900 -11.384100  -3.026720  -3.446900 -20.317300  10.243800  -3.241370   3.793610  41.626900  38.525700 -70.248000 -32.604100   0.000000   0.000000 -11.302000   0.003115  -0.000000 -30.280000   5.195500  -8.815400 -25.102700   0.000810   0.005485 -17.571900  -0.002404   0.001700 -28.187300  -1.694500   3.158280 -33.674400   0.002572  -0.000157 -22.427200  -0.003801   0.000917 -27.737800  -1.669650   3.171490 -30.694000   0.000960  -0.000253 -20.442200   0.001214   0.003692 -28.038100  -1.686270   3.162810 -42.127500   0.000845  -0.000261 -28.056900   0.000577   0.000735   1.942350  -6.908130   6.154220  16.743600 -13.184800  35.770800  -7.764890  -1.490680  -0.000510   2.778750   8.675270  -8.556960 -16.224300  35.248300  56.109400  83.823300  -0.005899   0.001837  49.166300   0.001567   0.001620  -2.551760  -1.466310  29.922100   0.000069  -0.003531  -0.005690  -0.000001  -0.005195  -0.007728  89.000600  -0.001478  -0.002831  94.944400   0.003127   0.000258  71.208200  -0.000715  -0.001718  88.997800  -4.988360  -0.093771  95.244200   0.007099   0.000729  71.433100  -0.004115  -0.003020  88.983500  -9.998550  -0.183538 110.000000  -0.002035  -0.002615  80.000000  -0.008760  -0.005799   5.205720  15.620800   6.024650   3.602970  13.645400   4.972170  -8.979380  -4.551740  -0.027228   0.000000   0.000000   0.000000   4.500110  20.901600  -0.943625   1.019600   1.639080  -9.577960  -0.044804  -3.120370   9.058530  -0.000000   0.000000   0.000000
 -6.088440  89.275500  -0.802281  -3.521400 -19.396200  -9.154590   0.446773  15.047300   3.681630  -0.160220  30.090700   7.657010   5.159980  -5.378370   0.484884   8.681980 -10.640300 -20.085200  -3.822610  -8.215690  -0.714323 -64.744700  23.506200 -11.311600  -3.155160  -3.445780 -20.123900  10.128500  -3.055870   3.760260  41.723000  38.632300 -70.438200 -32.548000   0.000000   0.000000 -11.273900   0.003098   0.000000 -30.219900   5.238090  -8.908450 -25.058100   0.001028   0.005591 -17.540700  -0.002466   0.001987 -28.179500  -1.649050   3.074800 -33.601300   0.002497  -0.000154 -22.378500  -0.003767   0.000864 -27.727300  -1.624730   3.087730 -30.622600   0.000937  -0.000255 -20.394600   0.001201   0.003651 -27.969100  -1.637890   3.080900 -42.020200   0.000846  -0.000263 -27.985400   0.000578   0.000687   1.955810  -6.891670   6.168920  16.737000 -13.260200  35.784600  -7.902950  -1.710820  -0.000523   2.950470   8.852080  -8.451340 -16.134100  35.755600  56.120100  83.586700  -0.005984   0.001840  49.008700   0.001546   0.001668  -4.076880  -2.347980  29.896500   0.000034  -0.003402  -0.005878  -0.000001  -0.005410  -0.007726  89.000600  -0.001472  -0.002757  94.412100   0.003093   0.000277  70.809000  -0.000625  -0.001743  88.997700  -4.988150  -0.093888  94.628200   0.007162   0.000818  70.971100  -0.004161  -0.003009  88.983500  -9.998450  -0.183670 110.000000  -0.002008  -0.002458  80.000000  -0.008870  -0.005962   5.200340  15.638000   6.020930   3.607440  13.626700   4.960220  -9.034880  -4.507950  -0.023683   0.000000   0.000000  -0.000000   4.448100  20.928600  -0.961018   1.074150   1.608950  -9.555720  -0.121591  -3.161850   9.032880  -0.000000   0.000000   0.000000
